<?xml version="1.0" standalone="no"?>
<!DOCTYPE svg PUBLIC "-//W3C//DTD SVG 20010904//EN"
 "http://www.w3.org/TR/2001/REC-SVG-20010904/DTD/svg10.dtd">
<svg version="1.0" xmlns="http://www.w3.org/2000/svg"
 width="604.000000pt" height="154.000000pt" viewBox="0 0 604.000000 154.000000"
 preserveAspectRatio="xMidYMid meet">

<g transform="translate(0.000000,154.000000) scale(0.100000,-0.100000)"
fill="#000000" stroke="none">
<path d="M1432 1039 c-113 -17 -206 -83 -249 -176 -27 -60 -24 -223 5 -288 30
-65 82 -118 146 -147 47 -21 64 -23 216 -22 117 0 177 4 205 15 l40 14 0 165
0 165 -148 3 -148 3 3 -68 3 -68 43 -3 c39 -3 42 -5 42 -32 0 -25 -5 -30 -35
-36 -54 -10 -103 3 -123 34 -24 37 -24 193 1 240 31 57 93 66 115 17 11 -24
14 -25 122 -25 l110 0 0 35 c0 76 -54 145 -128 164 -61 16 -153 20 -220 10z"/>
<path d="M741 1030 l-84 -5 -29 -85 c-25 -72 -142 -438 -163 -508 l-7 -23 124
3 123 3 9 42 c8 40 11 43 50 48 22 4 61 5 86 3 44 -3 45 -4 56 -48 l11 -45
118 -3 c65 -1 122 1 125 5 7 8 -149 506 -182 584 l-15 35 -69 0 c-38 0 -107
-3 -153 -6z m108 -243 c11 -54 21 -109 21 -122 0 -24 -3 -25 -60 -25 -49 0
-60 3 -60 16 0 19 50 225 57 237 10 17 21 -10 42 -106z"/>
<path d="M2033 1033 l-173 -3 0 -310 0 -310 240 0 240 0 0 80 0 80 -120 0
-120 0 0 44 0 44 104 4 c58 2 107 6 110 8 2 3 2 34 -1 68 l-6 64 -103 -4 -104
-3 0 43 0 42 115 0 115 0 0 80 0 80 -62 -2 c-35 -1 -141 -4 -235 -5z"/>
<path d="M2509 1033 l-117 -4 -7 -192 c-3 -106 -5 -244 -3 -307 l3 -115 105 0
105 0 -4 158 c-2 91 0 157 6 157 5 0 35 -72 68 -160 l59 -161 140 3 141 3 3
255 c2 140 0 279 -3 308 l-6 52 -95 0 -94 0 0 -167 c0 -100 -4 -163 -9 -158
-5 6 -36 82 -69 170 -54 144 -62 160 -83 161 -13 0 -76 -1 -140 -3z"/>
<path d="M3133 1033 l-43 -4 0 -310 0 -311 198 4 c191 3 199 4 248 30 108 56
164 155 164 287 0 130 -47 223 -134 266 -77 38 -258 54 -433 38z m276 -138
c41 -21 56 -66 55 -166 0 -110 -22 -157 -81 -178 -72 -26 -73 -23 -73 163 0
90 3 171 6 180 8 20 56 21 93 1z"/>
<path d="M3760 940 c0 -52 -3 -193 -7 -312 l-6 -218 130 0 131 0 -5 308 c-3
169 -6 308 -7 309 0 0 -54 3 -119 5 l-117 3 0 -95z"/>
<path d="M4050 945 l0 -85 64 0 c36 0 68 -5 71 -11 4 -5 6 -107 6 -225 l-2
-214 125 0 126 0 2 228 3 227 72 3 72 3 3 47 3 47 71 -145 c82 -167 94 -207
94 -324 l0 -86 125 0 125 0 0 102 0 101 105 204 c58 112 105 206 105 208 0 3
-54 5 -119 5 l-120 0 -37 -115 c-21 -63 -40 -115 -43 -115 -3 0 -22 51 -41
113 l-35 112 -388 3 -387 2 0 -85z"/>
</g>
</svg>
